# Blender v2.79 (sub 0) OBJ File: ''
# www.blender.org
mtllib Floor.mtl
o Cube.001
v 14.999995 -1.999994 -19.999992
v 14.999995 -2.000006 19.999987
v -14.999993 -2.000006 19.999983
v -14.999986 -1.999994 -20.000002
v 15.000002 0.000006 -19.999983
v -14.999990 0.000006 -19.999994
v -14.999997 -0.000006 19.999979
v 14.999986 -0.000006 19.999998
vn 0.0000 -1.0000 -0.0000
vn -0.0000 1.0000 0.0000
vn 1.0000 -0.0000 0.0000
vn -0.0000 -0.0000 1.0000
vn -1.0000 -0.0000 -0.0000
vn 0.0000 0.0000 -1.0000
usemtl (null)
s 1
f 1//1 2//1 3//1 4//1
f 5//2 6//2 7//2 8//2
f 1//3 5//3 8//3 2//3
f 2//4 8//4 7//4 3//4
f 3//5 7//5 6//5 4//5
f 5//6 1//6 4//6 6//6
